<?xml version="1.0" standalone="no"?><svg xmlns="http://www.w3.org/2000/svg" viewBox="0 0 1440 320"><path fill="#000b76" fill-opacity="0.76" d="M0,160L16,154.7C32,149,64,139,96,149.3C128,160,160,192,192,213.3C224,235,256,245,288,240C320,235,352,213,384,202.7C416,192,448,192,480,181.3C512,171,544,149,576,144C608,139,640,149,672,160C704,171,736,181,768,176C800,171,832,149,864,160C896,171,928,213,960,234.7C992,256,1024,256,1056,240C1088,224,1120,192,1152,165.3C1184,139,1216,117,1248,90.7C1280,64,1312,32,1344,53.3C1376,75,1408,149,1424,186.7L1440,224L1440,320L1424,320C1408,320,1376,320,1344,320C1312,320,1280,320,1248,320C1216,320,1184,320,1152,320C1120,320,1088,320,1056,320C1024,320,992,320,960,320C928,320,896,320,864,320C832,320,800,320,768,320C736,320,704,320,672,320C640,320,608,320,576,320C544,320,512,320,480,320C448,320,416,320,384,320C352,320,320,320,288,320C256,320,224,320,192,320C160,320,128,320,96,320C64,320,32,320,16,320L0,320Z"></path></svg>