<?xml version="1.0" standalone="no"?><svg xmlns="http://www.w3.org/2000/svg" viewBox="0 0 1440 320"><path fill="#000b76" fill-opacity="0.76" d="M0,160L16,154.7C32,149,64,139,96,149.3C128,160,160,192,192,213.3C224,235,256,245,288,240C320,235,352,213,384,202.7C416,192,448,192,480,181.3C512,171,544,149,576,144C608,139,640,149,672,160C704,171,736,181,768,176C800,171,832,149,864,160C896,171,928,213,960,234.7C992,256,1024,256,1056,240C1088,224,1120,192,1152,165.3C1184,139,1216,117,1248,90.7C1280,64,1312,32,1344,53.3C1376,75,1408,149,1424,186.7L1440,224L1440,0L1424,0C1408,0,1376,0,1344,0C1312,0,1280,0,1248,0C1216,0,1184,0,1152,0C1120,0,1088,0,1056,0C1024,0,992,0,960,0C928,0,896,0,864,0C832,0,800,0,768,0C736,0,704,0,672,0C640,0,608,0,576,0C544,0,512,0,480,0C448,0,416,0,384,0C352,0,320,0,288,0C256,0,224,0,192,0C160,0,128,0,96,0C64,0,32,0,16,0L0,0Z"></path></svg>